<?xml version="1.0" encoding="UTF-8"?>
<svg width="24px" height="24px" viewBox="0 0 24 24" version="1.1" xmlns="http://www.w3.org/2000/svg">
    <g stroke="none" stroke-width="1" fill="none" fill-rule="evenodd">
        <path d="M12.48,10.92 L12.48,14.4 L16.8,14.4 C16.32,16.2 14.88,17.28 12.48,17.28 C9.6,17.28 7.2,14.88 7.2,12 C7.2,9.12 9.6,6.72 12.48,6.72 C13.92,6.72 15.12,7.2 16.08,8.16 L18.24,6 C16.8,4.56 14.88,3.84 12.48,3.84 C7.92,3.84 4.32,7.44 4.32,12 C4.32,16.56 7.92,20.16 12.48,20.16 C16.8,20.16 20.16,17.28 20.16,12.48 C20.16,11.76 20.16,11.28 20.16,10.92 L12.48,10.92 Z" fill="#FFFFFF"/>
    </g>
</svg> 